<?xml version="1.0" encoding="UTF-8" standalone="no"?>
<svg
   height="24px"
   viewBox="0 -960 960 960"
   width="24px"
   fill="#1f1f1f"
   version="1.1"
   id="svg1"
   sodipodi:docname="vpn_key.svg"
   inkscape:version="1.4.2 (f4327f4, 2025-05-13)"
   xmlns:inkscape="http://www.inkscape.org/namespaces/inkscape"
   xmlns:sodipodi="http://sodipodi.sourceforge.net/DTD/sodipodi-0.dtd"
   xmlns="http://www.w3.org/2000/svg"
   xmlns:svg="http://www.w3.org/2000/svg">
  <defs
     id="defs1" />
  <sodipodi:namedview
     id="namedview1"
     pagecolor="#ffffff"
     bordercolor="#000000"
     borderopacity="0.25"
     inkscape:showpageshadow="2"
     inkscape:pageopacity="0.0"
     inkscape:pagecheckerboard="0"
     inkscape:deskcolor="#d1d1d1"
     inkscape:zoom="19.208333"
     inkscape:cx="11.97397"
     inkscape:cy="12"
     inkscape:window-width="1024"
     inkscape:window-height="705"
     inkscape:window-x="-8"
     inkscape:window-y="-8"
     inkscape:window-maximized="1"
     inkscape:current-layer="svg1" />
  <path
     d="M280-240q-100 0-170-70T40-480q0-100 70-170t170-70q66 0 121 33t87 87h432v240h-80v120H600v-120H488q-32 54-87 87t-121 33Zm0-80q66 0 106-40.5t48-79.5h246v120h80v-120h80v-80H434q-8-39-48-79.5T280-640q-66 0-113 47t-47 113q0 66 47 113t113 47Zm0-80q33 0 56.5-23.5T360-480q0-33-23.5-56.5T280-560q-33 0-56.5 23.5T200-480q0 33 23.5 56.5T280-400Zm0-80Z"
     id="path1"
     style="fill:#ffffff;fill-opacity:1" />
</svg>
